<?xml version="1.0" standalone="no"?>
<!DOCTYPE svg PUBLIC "-//W3C//DTD SVG 20010904//EN"
 "http://www.w3.org/TR/2001/REC-SVG-20010904/DTD/svg10.dtd">
<svg version="1.0" xmlns="http://www.w3.org/2000/svg"
 width="108.000000pt" height="39.000000pt" viewBox="0 0 108.000000 39.000000"
 preserveAspectRatio="xMidYMid meet">

<g transform="translate(0.000000,39.000000) scale(0.100000,-0.100000)"
fill="red" stroke="none">
<path d="M125 351 c-50 -22 -91 -69 -106 -121 -23 -75 25 -164 106 -201 52
-24 76 -24 135 2 139 60 147 238 14 311 -58 32 -94 34 -149 9z m115 -111 c23
-23 26 -68 8 -93 -7 -9 -27 -20 -45 -23 -26 -5 -37 -1 -57 19 -33 33 -33 61
-1 92 29 30 68 32 95 5z"/>
<path d="M360 364 c0 -3 27 -62 60 -129 47 -96 60 -133 60 -169 l0 -46 55 0
55 0 0 51 c0 42 10 70 60 168 33 65 60 121 60 125 0 4 -26 6 -57 4 l-58 -3
-27 -50 c-15 -27 -30 -50 -33 -50 -3 0 -18 23 -33 50 l-27 50 -57 3 c-32 2
-58 0 -58 -4z"/>
<path d="M805 346 c-64 -30 -95 -72 -102 -139 -7 -73 25 -132 93 -169 58 -32
94 -34 149 -9 50 22 91 69 106 121 23 75 -25 164 -106 201 -53 24 -80 24 -140
-5z m120 -111 c14 -13 25 -33 25 -45 0 -29 -44 -70 -75 -70 -33 0 -65 33 -65
68 0 66 69 94 115 47z"/>
</g>
</svg>
