<svg xmlns="http://www.w3.org/2000/svg" viewBox="0 0 100 100"><path d="M68.2 96.6c-6.1 2.4-12.4 3.5-18.9 3.4-22.5-.2-42.4-15.9-47.8-37.7-6.6-26.6 9-53.2 35.2-60.5 27.5-7.6 55.7 9.4 62 37.2 5.5 24.1-7.5 48.6-30.5 57.6m20.1-51.1C86 39.2 79.4 35.4 73 36.7c-7.3 1.5-11.9 8.1-10.8 15.5 1.1 7.2 8.5 12.4 15.6 11 8.3-1.5 13.1-9.6 10.5-17.7M35.9 57.3a13.48 13.48 0 0 0 2.1-6.2c.7-8.6-6.8-15.7-15.3-14.5-7.8 1.1-13.2 8.8-11.2 16.4 1.4 5.7 5.1 9.2 10.9 10.2 5.6 1 10.1-1.1 13.5-5.9M58.2 48l5.6-11.2h-9.1c-.5 0-.7.2-.9.6-1.2 2.3-2.3 4.7-3.5 7-.1.2-.2.3-.3.6l-3.8-7.6c-.2-.4-.4-.5-.8-.5h-8.5-.6c.1.3.2.5.3.7L45 54.4c.2.4.3.8.3 1.2v7 .8h9.6v-7.6c0-.5.1-1.1.4-1.5.9-2.2 1.9-4.2 2.9-6.3z" fill="#ed302b"/><path d="M88.3 45.6c2.6 8.1-2.1 16.1-10.4 17.7-7.2 1.4-14.6-3.8-15.6-11-1.1-7.4 3.4-14 10.8-15.5 6.3-1.4 12.9 2.4 15.2 8.8m-8 4c-.2-2-1.2-3.4-3.1-4.1-1.8-.7-3.5-.3-4.9 1s-1.9 3-1.4 4.9c.6 2.2 2.9 3.7 5.1 3.4 2.7-.4 4.3-2.4 4.3-5.2zm-44.4 7.7c-3.4 4.8-7.9 6.9-13.6 6-5.7-1-9.4-4.5-10.9-10.2-1.9-7.6 3.4-15.3 11.2-16.4 8.6-1.2 16.1 5.9 15.3 14.5-.1 2.1-.8 4.2-2 6.1m-15.1-4.2c1.7 1.8 4 2.3 6.1 1.1 2-1.1 2.9-3.4 2.2-5.6-.6-2-2-3.1-4.1-3.4-2-.2-3.6.6-4.6 2.3-1.1 1.9-.9 3.8.4 5.6zM58.2 48l-3 6c-.2.5-.3 1-.4 1.5v7.6h-9.6v-.8-7c0-.4-.1-.8-.3-1.2l-8.4-16.8c-.1-.2-.2-.4-.3-.7h.6 8.5c.4 0 .7.1.8.5l3.8 7.6.3-.6 3.5-7c.2-.4.4-.6.9-.6h9.1c-1.7 4.1-3.6 7.8-5.5 11.5z" fill="#fff"/><path d="M80.3 49.7c0 2.7-1.6 4.7-4.2 5.1-2.2.3-4.5-1.2-5.1-3.4-.5-1.9-.1-3.6 1.4-4.9 1.4-1.3 3.1-1.7 4.9-1s2.8 2.1 3 4.2zM20.8 53c-1.3-1.8-1.5-3.6-.4-5.5 1-1.7 2.6-2.6 4.6-2.3 2 .2 3.4 1.4 4.1 3.4.7 2.1-.2 4.5-2.2 5.6s-4.4.7-6.1-1.2z" fill="#ed312c"/></svg>